<?xml version="1.0" encoding="UTF-8" standalone="no"?>
<!DOCTYPE svg PUBLIC "-//W3C//DTD SVG 1.1//EN" "http://www.w3.org/Graphics/SVG/1.1/DTD/svg11.dtd">
<svg width="100%" height="100%" viewBox="0 0 100 100" version="1.1" xmlns="http://www.w3.org/2000/svg" xmlns:xlink="http://www.w3.org/1999/xlink" xml:space="preserve" xmlns:serif="http://www.serif.com/" style="fill-rule:evenodd;clip-rule:evenodd;stroke-linejoin:round;stroke-miterlimit:2;">
    <circle cx="50" cy="50" r="48" style="fill:rgb(55,141,0);"/>
    <g transform="matrix(0.5,0,0,0.5,25,25)">
        <path d="M99.001,19.428C95.395,21.036 91.521,22.123 87.454,22.612C91.604,20.109 94.792,16.146 96.295,11.423C92.41,13.741 88.108,15.423 83.527,16.331C79.86,12.4 74.634,9.944 68.851,9.944C57.747,9.944 48.744,18.998 48.744,30.167C48.744,31.752 48.921,33.295 49.264,34.776C32.554,33.931 17.739,25.881 7.822,13.645C6.092,16.633 5.1,20.107 5.1,23.813C5.1,30.83 8.65,37.021 14.045,40.647C10.749,40.543 7.648,39.633 4.939,38.118C4.937,38.203 4.937,38.288 4.937,38.373C4.937,48.172 11.868,56.345 21.066,58.204C19.378,58.667 17.603,58.914 15.769,58.914C14.473,58.914 13.214,58.787 11.986,58.551C14.545,66.585 21.97,72.433 30.768,72.596C23.887,78.02 15.217,81.253 5.797,81.253C4.174,81.253 2.574,81.157 1.001,80.971C9.899,86.709 20.468,90.058 31.821,90.058C68.803,90.058 89.027,59.241 89.027,32.515C89.027,31.638 89.007,30.767 88.968,29.898C92.896,27.045 96.305,23.482 99.001,19.428Z" style="fill:rgb(247,247,247);fill-rule:nonzero;"/>
    </g>
</svg>
